<?xml version="1.0" encoding="UTF-8"?>
<svg xmlns="http://www.w3.org/2000/svg" xmlns:xlink="http://www.w3.org/1999/xlink" width="2251px" height="1688px" viewBox="0 0 2250 1688" version="1.1">
<defs>
<clipPath id="clip1">
  <path d="M 282.179688 654.523438 L 1965.777344 654.523438 L 1965.777344 1032.820312 L 282.179688 1032.820312 Z M 282.179688 654.523438 "/>
</clipPath>
</defs>
<g id="surface1">
<rect x="0" y="0" width="2250" height="1688" style="fill:rgb(100%,100%,100%);fill-opacity:1;stroke:none;"/>
<g clip-path="url(#clip1)" clip-rule="nonzero">
<path style=" stroke:none;fill-rule:nonzero;fill:rgb(0.392157%,32.941176%,8.235294%);fill-opacity:1;" d="M 394.488281 1031.386719 C 359.222656 1031.386719 331.722656 1021.851562 311.988281 1002.785156 C 292.164062 983.714844 282.25 957.015625 282.25 922.691406 C 282.25 888.363281 293.6875 863.429688 316.566406 847.890625 C 339.441406 832.441406 368.753906 824.71875 404.496094 824.71875 C 425.46875 824.71875 444.53125 826.148438 461.691406 829.011719 C 478.847656 831.871094 494.335938 835.921875 508.160156 841.167969 L 510.304688 841.167969 L 510.304688 830.441406 C 510.304688 819.476562 506.253906 810.75 498.152344 804.265625 C 490.046875 797.878906 479.800781 794.921875 467.410156 795.398438 C 455.496094 795.398438 445.390625 796.113281 437.097656 797.546875 C 428.710938 798.976562 418.320312 801.359375 405.929688 804.695312 C 383.050781 810.417969 363.273438 809.941406 346.589844 803.265625 C 329.910156 796.589844 318.472656 783.480469 312.277344 763.933594 C 306.554688 743.433594 307.890625 726.273438 316.277344 712.445312 C 324.570312 698.621094 337.296875 687.894531 354.453125 680.265625 C 369.230469 673.113281 385.816406 667.15625 404.210938 662.386719 C 422.511719 657.621094 442.386719 655.238281 463.835938 655.238281 C 526.269531 655.238281 572.167969 670.351562 601.527344 700.574219 C 630.789062 730.894531 645.421875 781.574219 645.421875 852.609375 L 645.421875 963.453125 C 645.421875 983 639.464844 999.207031 627.546875 1012.078125 C 615.632812 1024.953125 599.191406 1031.386719 578.21875 1031.386719 C 555.34375 1031.386719 538.328125 1024.953125 527.175781 1012.078125 C 515.925781 999.207031 510.304688 983.476562 510.304688 964.882812 L 510.304688 948.433594 L 496.003906 948.433594 C 496.003906 960.828125 493.765625 973.464844 489.285156 986.335938 C 484.710938 999.207031 475.417969 1009.933594 461.40625 1018.515625 C 447.296875 1027.097656 424.992188 1031.386719 394.488281 1031.386719 Z M 401.636719 874.777344 C 401.636719 882.882812 404.640625 888.601562 410.644531 891.941406 C 416.554688 895.277344 429.519531 896.945312 449.535156 896.945312 C 467.648438 896.945312 480.277344 895.277344 487.425781 891.941406 C 494.574219 888.601562 498.152344 882.882812 498.152344 874.777344 C 498.152344 867.148438 494.574219 861.761719 487.425781 858.617188 C 480.277344 855.566406 467.648438 854.039062 449.535156 854.039062 C 429.519531 854.039062 416.554688 855.566406 410.644531 858.617188 C 404.640625 861.761719 401.636719 867.148438 401.636719 874.777344 Z M 749.796875 1031.386719 C 728.347656 1031.386719 711.285156 1025.046875 698.609375 1012.367188 C 686.027344 999.78125 679.734375 984.191406 679.734375 965.597656 L 679.734375 728.894531 C 679.734375 708.871094 685.789062 691.945312 697.894531 678.121094 C 710.09375 664.296875 727.394531 657.382812 749.796875 657.382812 C 771.71875 657.382812 788.164062 664.296875 799.125 678.121094 C 810.085938 691.945312 815.566406 709.347656 815.566406 730.324219 L 815.566406 766.078125 L 828.4375 766.078125 C 828.4375 725.558594 837.015625 697.285156 854.171875 681.265625 C 871.332031 665.34375 892.539062 657.382812 917.800781 657.382812 C 950.207031 657.382812 974.039062 667.394531 989.289062 687.417969 C 1004.539062 707.441406 1012.167969 733.660156 1012.167969 766.078125 L 1025.035156 766.078125 C 1025.035156 738.90625 1029.5625 717.453125 1038.617188 701.71875 C 1047.671875 685.988281 1059.207031 674.640625 1073.21875 667.679688 C 1087.328125 660.816406 1102.007812 657.382812 1117.257812 657.382812 C 1148.238281 657.382812 1170.96875 664.773438 1185.460938 679.550781 C 1200.042969 694.332031 1209.480469 714.113281 1213.769531 738.90625 C 1218.058594 763.695312 1220.203125 791.585938 1220.203125 822.574219 L 1220.203125 965.597656 C 1220.203125 984.191406 1213.863281 999.78125 1201.1875 1012.367188 C 1188.605469 1025.046875 1171.828125 1031.386719 1150.859375 1031.386719 C 1129.886719 1031.386719 1112.96875 1025.046875 1100.097656 1012.367188 C 1087.230469 999.78125 1080.796875 984.191406 1080.796875 965.597656 L 1080.796875 839.023438 C 1080.796875 821.859375 1078.652344 808.511719 1074.363281 798.976562 C 1070.074219 789.441406 1061.496094 784.671875 1048.625 784.671875 C 1034.804688 784.671875 1025.84375 789.917969 1021.746094 800.40625 C 1017.742188 810.894531 1015.742188 824.242188 1015.742188 840.453125 L 1015.742188 965.597656 C 1015.742188 984.191406 1009.785156 999.78125 997.867188 1012.367188 C 985.953125 1025.046875 969.511719 1031.386719 948.539062 1031.386719 C 927.09375 1031.386719 910.03125 1025.046875 897.351562 1012.367188 C 884.769531 999.78125 878.480469 984.191406 878.480469 965.597656 L 878.480469 839.023438 C 878.480469 821.859375 876.335938 808.511719 872.046875 798.976562 C 867.753906 789.441406 859.414062 784.671875 847.023438 784.671875 C 833.203125 784.671875 824.480469 789.917969 820.859375 800.40625 C 817.332031 810.894531 815.566406 824.242188 815.566406 840.453125 L 815.566406 965.597656 C 815.566406 984.191406 809.847656 999.78125 798.410156 1012.367188 C 786.972656 1025.046875 770.765625 1031.386719 749.796875 1031.386719 Z M 1328.152344 1031.386719 C 1305.753906 1031.386719 1288.359375 1024.953125 1275.964844 1012.078125 C 1263.480469 999.207031 1257.234375 983 1257.234375 963.453125 L 1257.234375 728.894531 C 1257.234375 708.394531 1263.480469 691.328125 1275.964844 677.691406 C 1288.359375 664.152344 1305.753906 657.382812 1328.152344 657.382812 C 1350.554688 657.382812 1367.710938 664.152344 1379.625 677.691406 C 1391.542969 691.328125 1397.5 707.917969 1397.5 727.464844 L 1397.5 742.480469 L 1410.941406 742.480469 C 1412.941406 717.214844 1422.472656 696.476562 1439.535156 680.265625 C 1456.789062 664.058594 1477.042969 655.953125 1500.300781 655.953125 C 1523.75 655.953125 1542.242188 663.101562 1555.777344 677.40625 C 1569.410156 691.707031 1576.226562 710.777344 1576.226562 734.613281 C 1576.226562 757.023438 1569.792969 775.613281 1556.921875 790.394531 C 1544.054688 805.171875 1527.5625 812.5625 1507.453125 812.5625 C 1490.769531 812.5625 1476.855469 808.605469 1465.703125 800.691406 C 1454.550781 792.875 1446.351562 783.71875 1441.109375 773.230469 C 1425.761719 771.324219 1414.65625 772.851562 1407.792969 777.808594 C 1400.929688 782.863281 1397.5 792.777344 1397.5 807.558594 L 1397.5 963.453125 C 1397.5 983 1391.542969 999.207031 1379.625 1012.078125 C 1367.710938 1024.953125 1350.554688 1031.386719 1328.152344 1031.386719 Z M 1781.976562 1032.816406 C 1726.210938 1032.816406 1681.792969 1016.226562 1648.714844 983.046875 C 1615.546875 949.960938 1598.960938 903.144531 1598.960938 842.597656 C 1598.960938 805.410156 1606.585938 772.753906 1621.835938 744.625 C 1637.085938 716.5 1658.4375 694.425781 1685.890625 678.40625 C 1713.25 662.484375 1745.277344 654.523438 1781.976562 654.523438 C 1822.960938 654.523438 1857.039062 662.484375 1884.207031 678.40625 C 1911.371094 694.425781 1931.769531 716.5 1945.402344 744.625 C 1958.9375 772.753906 1965.707031 805.410156 1965.707031 842.597656 C 1965.707031 903.144531 1950.597656 949.960938 1920.378906 983.046875 C 1890.066406 1016.226562 1843.933594 1032.816406 1781.976562 1032.816406 Z M 1684.03125 830.441406 C 1684.03125 845.21875 1691.421875 855.566406 1706.195312 861.476562 C 1720.96875 867.484375 1746.230469 870.488281 1781.976562 870.488281 C 1817.71875 870.488281 1842.980469 867.484375 1857.753906 861.476562 C 1872.53125 855.566406 1879.917969 845.21875 1879.917969 830.441406 C 1879.917969 816.136719 1872.53125 806.125 1857.753906 800.40625 C 1842.980469 794.683594 1817.71875 791.824219 1781.976562 791.824219 C 1746.230469 791.824219 1720.96875 794.683594 1706.195312 800.40625 C 1691.421875 806.125 1684.03125 816.136719 1684.03125 830.441406 Z M 1684.03125 830.441406 "/>
</g>
</g>
</svg>
